<?xml version="1.0" standalone="no"?><!DOCTYPE svg PUBLIC "-//W3C//DTD SVG 1.1//EN" "http://www.w3.org/Graphics/SVG/1.1/DTD/svg11.dtd"><svg t="1620699967681" class="icon" viewBox="0 0 1024 1024" version="1.1" xmlns="http://www.w3.org/2000/svg" p-id="1909" xmlns:xlink="http://www.w3.org/1999/xlink" width="128" height="128"><defs><style type="text/css"></style></defs><path d="M836.560197 696.420639V340.662408C836.560197 190.207371 698.181818 27.675676 566.344963 10.063882H464.19656C313.238329 10.063882 196.497297 168.06683 196.497297 318.521867l-5.535135 377.395578c0 150.455037-33.210811 152.467813-38.745946 162.531695s176.62113 38.745946 176.62113 38.745946H439.036855l143.410319-16.605405s238.010811-19.62457 237.507617-38.745946c0-6.038329 82.523833-42.771499 38.745946-38.745946-24.656511 3.019165-21.637346-15.599017-22.14054-106.67715z" fill="#EB4545" p-id="1910"></path><path d="M301.161671 861.971499S455.139066 800.581818 454.132678 784.982801c-1.509582-27.675676-4.025553-66.421622-4.025553-66.421622 0-30.69484 24.656511-55.351351 55.351352-55.351351s55.351351 24.656511 55.351351 55.351351v50.319411c0 14.592629 137.875184 159.009337 137.875184 159.009336" fill="#FDE8CF" p-id="1911"></path><path d="M378.653563 805.110565c15.095823 1.006388 29.688452 3.522359 44.281081 6.541523 23.146929 5.535135 52.332187 92.084521 86.046191 89.065357 41.261916-4.025553 58.87371-93.594103 85.039804-93.594103 18.114988-1.006388 36.229975-3.522359 53.841769-6.541524 62.899263 0.503194 98.626044 69.94398 98.12285 130.327273v80.511056l-478.034398-0.503194V915.813268c0-60.383292 49.816216-108.186732 110.702703-110.702703z" fill="#29BE96" p-id="1912"></path><path d="M514.012776 167.563636c150.958231 0 273.234398 122.276167 273.234398 273.234398v26.669288c0 150.958231-122.276167 273.234398-273.234398 273.234398-150.958231 0-273.234398-122.276167-273.234398-273.234398v-26.669288c0-150.958231 122.276167-273.234398 273.234398-273.234398z" fill="#FDE8CF" p-id="1913"></path><path d="M836.560197 340.662408C836.560197 190.207371 698.181818 27.675676 566.344963 10.063882H464.19656C313.238329 10.063882 196.497297 168.06683 196.497297 318.521867c0 0 3.019165 34.720393-0.503194 21.134153 19.121376 77.491892 5.535135 53.841769 60.886487 34.720393 44.784275-15.095823 117.74742 31.701229 182.156265 26.166093 44.281081-3.522359 120.766585-35.726781 160.015725-54.848157 33.210811 22.643735 94.600491 61.892875 126.804914 60.886486 73.466339-2.515971 110.702703-65.918428 110.702703-65.918427z" fill="#EB4545" p-id="1914"></path><path d="M238.765602 518.79312c-38.242752 0-68.937592-27.172482-68.937592-60.383292S200.52285 397.523342 238.765602 397.523342M791.775921 398.026536c36.73317 0 66.421622 27.172482 66.421622 60.886486s-29.688452 60.383292-66.421622 60.383292" fill="#FDE8CF" p-id="1915"></path><path d="M406.329238 425.199017c18.114988 0 33.210811 15.095823 33.210811 33.210811 0 18.114988-15.095823 33.210811-33.210811 33.210811-18.114988 0-33.210811-14.592629-33.21081-33.210811 0-18.114988 14.592629-33.210811 33.21081-33.210811z" fill="#012428" p-id="1916"></path><path d="M605.090909 458.409828m-33.210811 0a33.210811 33.210811 0 1 0 66.421622 0 33.210811 33.210811 0 1 0-66.421622 0Z" fill="#012428" p-id="1917"></path><path d="M602.071744 466.460934m-24.656511 0a24.656511 24.656511 0 1 0 49.313023 0 24.656511 24.656511 0 1 0-49.313023 0Z" fill="#012428" p-id="1918"></path><path d="M367.583292 524.328256c21.134152 0 38.745946 8.5543 38.745946 19.121375s-17.1086 19.121376-38.745946 19.121376-38.745946-8.5543-38.745946-19.121376 17.1086-19.121376 38.745946-19.121375zM659.939066 524.328256c21.134152 0 38.745946 8.5543 38.745946 19.121375s-17.1086 19.121376-38.745946 19.121376-38.745946-8.5543-38.745946-19.121376 17.611794-19.121376 38.745946-19.121375z" fill="#FA6E6E" p-id="1919"></path></svg>