<?xml version="1.0" standalone="no"?><!DOCTYPE svg PUBLIC "-//W3C//DTD SVG 1.1//EN" "http://www.w3.org/Graphics/SVG/1.1/DTD/svg11.dtd"><svg t="1620698016385" class="icon" viewBox="0 0 1024 1024" version="1.1" xmlns="http://www.w3.org/2000/svg" p-id="6896" xmlns:xlink="http://www.w3.org/1999/xlink" width="128" height="128"><defs><style type="text/css"></style></defs><path d="M868.354104 567.118342c56.047504 0 84.071767-168.143535 0-168.143535L700.206476 398.974807c168.147628-280.242635 46.413076-336.290139 0-336.290139 0 142.373615-209.370495 301.023938-420.36293 364.314403L279.843546 875.380124l-56.047504 0L223.796042 426.993954l56.047504 0 0-28.02938L167.749562 398.964574c-30.828123 0-56.047504 37.83777-56.047504 84.076884l0 336.291163c0 46.239114 25.219381 84.070744 56.047504 84.070744l112.095008 0 0-28.018124c238.850923 24.823362 155.578358 84.070744 392.338666 84.070744 56.047504 0 112.095008-28.02324 112.095008-84.070744 56.05262 0 84.076884-140.119271 56.05262-140.119271C896.378367 735.26597 932.281065 567.118342 868.354104 567.118342L868.354104 567.118342zM868.354104 567.118342" p-id="6897" fill="#d81e06"></path></svg>